<svg  xmlns="http://www.w3.org/2000/svg">


    <symbol enable-background="new 0 0 512.007 512.007" id="game-controller" viewBox="0 0 512.007 512.007" >
    <g><path d="m46.014 512.004c24.825 0 55.036-18.72 89.792-55.639 21.155-22.472 49.462-35.361 77.663-35.361h85.07c28.412 0 57.818 13.219 78.663 35.361 35.246 37.439 64.29 55.639 88.792 55.639 13.698 0 45.602-7.299 46.01-74.909.42-69.284-32.59-177.128-82.398-227.239-19.029-19.145-39.217-28.852-60.003-28.852-26.013 0-38.16 8.287-48.876 15.599-8.09 5.519-15.771 10.758-31.977 13.802 6.704-10.598 12.254-23.427 12.254-36.902 0-31.79-30.865-60.04-34.999-63.68-6.583-6.01-25.001-26.38-25.001-42.32 0-15.723 18.434-35.525 24.896-41.228 6.217-5.458 6.842-14.921 1.392-21.15-5.456-6.235-14.932-6.866-21.166-1.411-3.595 3.146-35.123 31.66-35.123 63.789 0 31.966 31.341 61.357 34.915 64.603.069.062.138.124.208.185 6.454 5.647 24.877 25.34 24.877 41.211 0 13.224-13.039 29.332-21.016 37.5h-23.254c-18.626-2.921-26.805-8.5-35.453-14.401-10.716-7.312-22.863-15.599-48.876-15.599-20.786 0-40.974 9.707-60.003 28.852-49.807 50.112-82.817 157.956-82.397 227.24.409 67.61 32.312 74.91 46.01 74.91zm57.665-280.999c13.191-13.272 26.221-20.001 38.726-20.001 16.754 0 22.806 4.13 31.968 10.381 20.861 14.234 41.347 19.619 51.224 19.619h60.813c10.245 0 30.674-5.598 51.224-19.619 9.162-6.251 15.214-10.381 31.968-10.381 12.505 0 25.534 6.729 38.726 20.001 43.886 44.152 74.051 143.953 73.676 205.908-.136 22.444-5.139 45.091-16.011 45.091-7.052 0-27.691-4.502-66.948-46.203-26.801-28.469-63.434-44.797-100.506-44.797h-85.07c-36.437 0-72.706 16.328-99.506 44.797-39.257 41.701-60.596 46.203-67.948 46.203-10.872 0-15.875-22.647-16.011-45.091-.376-61.955 29.79-161.756 73.675-205.908z"/><path d="m106.003 331.004h15v15c0 8.284 6.716 15 15 15s15-6.716 15-15v-15h15c8.284 0 15-6.716 15-15s-6.716-15-15-15h-15v-15c0-8.284-6.716-15-15-15s-15 6.716-15 15v15h-15c-8.284 0-15 6.716-15 15s6.716 15 15 15z"/><circle cx="376.003" cy="286.004" r="15"/><circle cx="376.003" cy="346.004" r="15"/><circle cx="346.003" cy="316.004" r="15"/><circle cx="406.003" cy="316.004" r="15"/><path d="m226.003 331.004h60c8.284 0 15-6.716 15-15s-6.716-15-15-15h-60c-8.284 0-15 6.716-15 15s6.716 15 15 15z"/></g>
    </symbol>

    <symbol enable-background="new 0 0 552.47 552.47" id="cake" viewBox="0 0 552.47 552.47">
    <path d="m517.941 414.353v-241.706c0-38.087-30.972-69.059-69.059-69.059h-345.294c-38.087 0-69.059 30.972-69.059 69.059v241.706h-34.529v34.529h552.47v-34.529zm-448.882-241.706c0-19.035 15.494-34.529 34.529-34.529h345.294c19.035 0 34.529 15.494 34.529 34.529v35.221c-30.972 0-47.697 10.706-61.152 19.288-12.106 7.739-21.665 13.859-42.521 13.859-20.873 0-30.432-6.12-42.538-13.859-13.454-8.599-30.18-19.288-61.152-19.288-30.921 0-47.629 10.706-61.05 19.305-12.089 7.739-21.631 13.842-42.454 13.842-20.822 0-30.348-6.103-42.437-13.842-13.421-8.599-30.129-19.305-61.05-19.305zm0 241.706v-171.956c20.822 0 30.348 6.103 42.437 13.842 13.421 8.599 30.129 19.305 61.05 19.305 30.938 0 47.646-10.706 61.067-19.305 12.089-7.739 21.615-13.842 42.437-13.842 20.873 0 30.432 6.12 42.538 13.859 13.454 8.599 30.18 19.288 61.152 19.288 30.955 0 47.68-10.689 61.135-19.288 12.106-7.739 21.665-13.859 42.538-13.859v171.956z"/>
    </symbol>

    <symbol id="degree" viewBox="0 0 512 512" >
    <path d="m502.024 156.633c5.987-2.128 9.983-7.797 9.976-14.151-.008-6.354-4.018-12.013-10.009-14.127l-241-85.031c-3.229-1.14-6.752-1.14-9.981 0l-241 85.031c-5.992 2.113-10.002 7.773-10.01 14.127s3.989 12.023 9.976 14.151l95.469 33.94v97.847c0 16.149 16.847 29.806 50.073 40.59 28.961 9.4 64.647 14.577 100.483 14.577s71.521-5.177 100.483-14.577c33.226-10.784 50.073-24.44 50.073-40.59v-97.847l39.417-14.013v135.584c-17.529 6.198-30.125 22.927-30.125 42.552 0 19.624 12.596 36.354 30.125 42.552v57.285c0 8.284 6.716 15 15 15s15-6.716 15-15v-57.285c17.529-6.198 30.125-22.927 30.125-42.552 0-19.624-12.596-36.354-30.125-42.552v-146.25zm-41.051 213.187c-8.34 0-15.125-6.785-15.125-15.125s6.785-15.125 15.125-15.125 15.125 6.785 15.125 15.125-6.785 15.125-15.125 15.125zm-204.973-296.445 196.069 69.179-196.069 69.703-196.069-69.704zm120.556 212.784c-2.875 2.898-13.167 9.839-36.396 16.466-24.781 7.069-54.67 10.962-84.16 10.962s-59.378-3.893-84.16-10.962c-23.229-6.627-33.521-13.567-36.396-16.466v-84.921l115.531 41.072c1.625.578 3.325.867 5.024.867 1.7 0 3.399-.289 5.024-.867l115.531-41.072v84.921z"/>
    </symbol>

    <symbol id="blood-drop" viewBox="-57 0 512 512">
    <path d="m322.125 315.171875c-8.28125 0-15 6.714844-15 15 0 27.867187-9.324219 50.027344-27.710938 65.867187-6.277343 5.40625-6.980468 14.878907-1.574218 21.15625 2.964844 3.445313 7.15625 5.210938 11.371094 5.210938 3.464843 0 6.949218-1.195312 9.78125-3.636719 25.304687-21.796875 38.132812-51.605469 38.132812-88.597656 0-8.285156-6.714844-15-15-15zm0 0"/><path d="m302.640625 124.71875c-45.824219-65.605469-92.308594-119.046875-92.773437-119.578125-2.847657-3.265625-6.972657-5.140625-11.304688-5.140625s-8.453125 1.875-11.304688 5.140625c-.460937.53125-46.949218 53.972656-92.773437 119.578125-62.695313 89.757812-94.484375 158.882812-94.484375 205.453125 0 54.46875 20.394531 100.824219 58.976562 134.058594 35.761719 30.804687 85.335938 47.769531 139.585938 47.769531 54.253906 0 103.828125-16.964844 139.589844-47.773438 38.582031-33.234374 58.972656-79.589843 58.972656-134.054687 0-46.570313-31.789062-115.695313-94.484375-205.453125zm15.929687 316.78125c-30.316406 26.117188-72.9375 40.5-120.007812 40.5s-89.6875-14.382812-120.007812-40.5c-31.765626-27.363281-48.554688-65.859375-48.554688-111.328125 0-39.703125 30.75-104.730469 88.929688-188.058594 31.46875-45.074219 63.265624-84.296875 79.632812-103.917969 16.335938 19.578126 48.039062 58.679688 79.484375 103.703126 58.277344 83.429687 89.078125 148.535156 89.078125 188.273437 0 45.46875-16.789062 83.964844-48.554688 111.328125zm0 0"/>
    </symbol>


	<symbol id="google" viewBox="0 0 32 32"><path d="M 16.003906 14.0625 L 16.003906 18.265625 L 21.992188 18.265625 C 21.210938 20.8125 19.082031 22.636719 16.003906 22.636719 C 12.339844 22.636719 9.367188 19.664063 9.367188 16 C 9.367188 12.335938 12.335938 9.363281 16.003906 9.363281 C 17.652344 9.363281 19.15625 9.96875 20.316406 10.964844 L 23.410156 7.867188 C 21.457031 6.085938 18.855469 5 16.003906 5 C 9.925781 5 5 9.925781 5 16 C 5 22.074219 9.925781 27 16.003906 27 C 25.238281 27 27.277344 18.363281 26.371094 14.078125 Z"/></symbol>

    <symbol id="facebook" viewBox="0 0 24 24"><path d="m15.997 3.985h2.191v-3.816c-.378-.052-1.678-.169-3.192-.169-3.159 0-5.323 1.987-5.323 5.639v3.361h-3.486v4.266h3.486v10.734h4.274v-10.733h3.345l.531-4.266h-3.877v-2.939c.001-1.233.333-2.077 2.051-2.077z"/></symbol>

    <symbol version="1.1" id="twitter" viewBox="0 0 512 512" >
		<g>
			<g>
				<path d="M512,97.248c-19.04,8.352-39.328,13.888-60.48,16.576c21.76-12.992,38.368-33.408,46.176-58.016
					c-20.288,12.096-42.688,20.64-66.56,25.408C411.872,60.704,384.416,48,354.464,48c-58.112,0-104.896,47.168-104.896,104.992
					c0,8.32,0.704,16.32,2.432,23.936c-87.264-4.256-164.48-46.08-216.352-109.792c-9.056,15.712-14.368,33.696-14.368,53.056
					c0,36.352,18.72,68.576,46.624,87.232c-16.864-0.32-33.408-5.216-47.424-12.928c0,0.32,0,0.736,0,1.152
					c0,51.008,36.384,93.376,84.096,103.136c-8.544,2.336-17.856,3.456-27.52,3.456c-6.72,0-13.504-0.384-19.872-1.792
					c13.6,41.568,52.192,72.128,98.08,73.12c-35.712,27.936-81.056,44.768-130.144,44.768c-8.608,0-16.864-0.384-25.12-1.44
					C46.496,446.88,101.6,464,161.024,464c193.152,0,298.752-160,298.752-298.688c0-4.64-0.16-9.12-0.384-13.568
					C480.224,136.96,497.728,118.496,512,97.248z"/>
			</g>
		</g>
	</symbol>

	 <symbol version="1.1">
	   <g id="RavelryIcon-Color-32x32" stroke="none" stroke-width="1" fill="none" fill-rule="evenodd">
        <g id="2019-Ravelry-Secondary-MarBlack-Black-Copy-3" fill="#EE6E62" fill-rule="nonzero">
            <path d="M31.9225935,14.3830343 C31.843192,13.7034202 31.8108728,13.0142115 31.676409,12.3457909 C31.513217,11.5338519 31.3049377,10.7255108 31.04399,9.9399568 C30.5879302,8.56673641 29.921995,7.29385906 29.0146633,6.1605025 C28.6216459,5.66958121 28.2234414,5.17666106 27.7777556,4.73491185 C26.8480798,3.81383478 25.8118703,3.0246828 24.6810973,2.36105956 C23.5028429,1.6694522 22.2667332,1.10897041 20.952818,0.739580119 C20.2286284,0.536095643 19.4888778,0.382582797 18.7499252,0.239064276 C18.3042394,0.1527133 17.8461845,0.129526464 17.3941147,0.0759568771 C17.3733666,0.0735582388 17.3546135,0.0523702679 17.3350623,0.0395775307 C16.6276309,0.0399773037 15.9201995,0.0399773037 15.2127681,0.0399773037 C15.0543641,0.0655627781 14.8967581,0.100742805 14.7371571,0.115534408 C13.9690773,0.187093781 13.2233416,0.363793464 12.485586,0.582069542 C11.5774564,0.85031725 10.7100249,1.21930776 9.8717207,1.65705924 C8.99351621,2.11599869 8.16199501,2.65209433 7.36877805,3.24495774 C6.96339152,3.54798571 6.56239401,3.86020845 6.18733167,4.19921598 C5.51860349,4.80447236 4.8482793,5.41092806 4.22024938,6.05736106 C3.37197007,6.93086515 2.6405985,7.90071453 2.00857855,8.94612103 C1.44837905,9.8731947 0.988329177,10.8438436 0.661546135,11.8772569 C0.425735661,12.6236332 0.255361596,13.3828022 0.156009975,14.1619598 C0.0570573566,14.9391186 0.0147630923,15.7186761 0.0538653367,16.4970342 C0.098553616,17.3825314 0.180349127,18.2652303 0.344738155,19.1419326 C0.572568579,20.3568428 0.928877805,21.5237803 1.44438903,22.6451437 C1.87092269,23.5722174 2.40399002,24.4309299 3.02204489,25.2432687 C3.54034913,25.9240821 4.1272818,26.5397326 4.75451372,27.1110083 C5.59561097,27.8769734 6.51690773,28.5413962 7.50084788,29.1214669 C8.66753117,29.8094763 9.89206983,30.3575651 11.1752618,30.7829236 C12.0482793,31.0723593 12.9416459,31.2786422 13.8465835,31.4293566 C14.245586,31.495719 14.6533666,31.5117099 15.0567581,31.5524867 C15.0838903,31.5552851 15.1090274,31.5768729 15.1349626,31.5892659 C15.842394,31.5892659 16.5498254,31.5892659 17.2572569,31.5892659 C17.4220449,31.5636804 17.5860349,31.5277008 17.75202,31.5141085 C18.8257357,31.4265582 19.8623441,31.1635076 20.8734165,30.8097084 C22.0041895,30.4135334 23.0886783,29.9074207 24.0909726,29.2441972 C24.7317706,28.8204378 25.3657855,28.3846852 25.9798504,27.9233471 C26.3600998,27.6375094 26.7020449,27.2989016 27.0515711,26.9730866 C27.3121197,26.7300246 27.5618953,26.4749694 27.8080798,26.2171158 C28.6012968,25.3843885 29.285985,24.4685085 29.8737157,23.4802696 C30.5009476,22.4256683 31.0144638,21.3174974 31.3396509,20.1329699 C31.527581,19.4485585 31.6648379,18.7497552 31.8008978,18.052551 C31.8687282,17.705548 31.8830923,17.3477512 31.9237905,16.9951514 C31.9261845,16.9743632 31.9473317,16.9555738 31.9600998,16.9359849 C31.9600998,16.1240459 31.9600998,15.3121069 31.9600998,14.5001678 C31.9473317,14.4609901 31.9273815,14.4230116 31.9225935,14.3830343 Z M21.3326683,14.3074772 C21.3326683,14.3074772 20.2433915,14.1115884 19.4613466,14.1115884 C17.6738155,14.1115884 17.2548628,15.0910324 17.2548628,16.5462062 L17.2548628,22.702711 L12.4229426,22.702711 L12.4229426,10.1658286 L17.2548628,10.1658286 L17.2548628,12.264637 C17.8413965,10.5016379 19.0144638,9.88598744 21.3326683,9.88598744 L21.3326683,14.3074772 L21.3326683,14.3074772 Z" id="Shape"></path>
        </g>
    </g>
	</symbol>

	<symbol version="1.1" id="whatsapp" xmlns="http://www.w3.org/2000/svg" 
		viewBox="0 0 512 512">
	<g>
		<g>
			<path d="M256.064,0h-0.128C114.784,0,0,114.816,0,256c0,56,18.048,107.904,48.736,150.048l-31.904,95.104l98.4-31.456
				C155.712,496.512,204,512,256.064,512C397.216,512,512,397.152,512,256S397.216,0,256.064,0z M405.024,361.504
				c-6.176,17.44-30.688,31.904-50.24,36.128c-13.376,2.848-30.848,5.12-89.664-19.264C189.888,347.2,141.44,270.752,137.664,265.792
				c-3.616-4.96-30.4-40.48-30.4-77.216s18.656-54.624,26.176-62.304c6.176-6.304,16.384-9.184,26.176-9.184
				c3.168,0,6.016,0.16,8.576,0.288c7.52,0.32,11.296,0.768,16.256,12.64c6.176,14.88,21.216,51.616,23.008,55.392
				c1.824,3.776,3.648,8.896,1.088,13.856c-2.4,5.12-4.512,7.392-8.288,11.744c-3.776,4.352-7.36,7.68-11.136,12.352
				c-3.456,4.064-7.36,8.416-3.008,15.936c4.352,7.36,19.392,31.904,41.536,51.616c28.576,25.44,51.744,33.568,60.032,37.024
				c6.176,2.56,13.536,1.952,18.048-2.848c5.728-6.176,12.8-16.416,20-26.496c5.12-7.232,11.584-8.128,18.368-5.568
				c6.912,2.4,43.488,20.48,51.008,24.224c7.52,3.776,12.48,5.568,14.304,8.736C411.2,329.152,411.2,344.032,405.024,361.504z"/>
		</g>
	</g>
	</symbol>

	<symbol id="instagram" viewBox="0 0 512.00096 512.00096" xmlns="http://www.w3.org/2000/svg"><path d="m373.40625 0h-234.8125c-76.421875 0-138.59375 62.171875-138.59375 138.59375v234.816406c0 76.417969 62.171875 138.589844 138.59375 138.589844h234.816406c76.417969 0 138.589844-62.171875 138.589844-138.589844v-234.816406c0-76.421875-62.171875-138.59375-138.59375-138.59375zm-117.40625 395.996094c-77.195312 0-139.996094-62.800782-139.996094-139.996094s62.800782-139.996094 139.996094-139.996094 139.996094 62.800782 139.996094 139.996094-62.800782 139.996094-139.996094 139.996094zm143.34375-246.976563c-22.8125 0-41.367188-18.554687-41.367188-41.367187s18.554688-41.371094 41.367188-41.371094 41.371094 18.558594 41.371094 41.371094-18.558594 41.367187-41.371094 41.367187zm0 0"/><path d="m256 146.019531c-60.640625 0-109.980469 49.335938-109.980469 109.980469 0 60.640625 49.339844 109.980469 109.980469 109.980469 60.644531 0 109.980469-49.339844 109.980469-109.980469 0-60.644531-49.335938-109.980469-109.980469-109.980469zm0 0"/><path d="m399.34375 96.300781c-6.257812 0-11.351562 5.09375-11.351562 11.351563 0 6.257812 5.09375 11.351562 11.351562 11.351562 6.261719 0 11.355469-5.089844 11.355469-11.351562 0-6.261719-5.09375-11.351563-11.355469-11.351563zm0 0"/></symbol>

	<symbol id="youtube" enable-background="new 0 0 24 24" viewBox="0 0 24 24" xmlns="http://www.w3.org/2000/svg"><path d="m.522 17.874c.49 1.738 1.989 2.056 2.089 2.117 2.467.672 16.295.674 18.799 0 1.715-.496 2.03-2.017 2.089-2.117.653-3.474.696-8.003-.03-11.945l.03.196c-.49-1.738-1.989-2.056-2.089-2.117-2.434-.661-16.298-.686-18.799 0-1.715.497-2.03 2.017-2.089 2.117-.699 3.651-.734 7.84 0 11.749zm9.086-2.223v-7.293l6.266 3.652z" fill="#e53935"/></symbol>
    
</svg>